                                                                        S      1
,,,17HHolder_Part5_qty3,22HAutodesk Inventor 2023,7Hunknown,32,38,7,99, G      1
15,,1.,1,4HINCH,1,0.08,15H20220516.185947,0.000393700787401575,10000.,5HG      2
Aaron,,11,0,15H20220516.000000;                                         G      3
     186       1                                                00000000D      1
     186            -103       1       0                               0D      2
     514       2                                                00010000D      3
     514                       1       1                               0D      4
     510       3                                                00010000D      5
     510            -103       1       1                               0D      6
     510       4                                                00010000D      7
     510            -103       1       1                               0D      8
     510       5                                                00010000D      9
     510            -103       1       1                               0D     10
     510       6                                                00010000D     11
     510            -103       1       1                               0D     12
     510       7                                                00010000D     13
     510            -103       1       1                               0D     14
     510       8                                                00010000D     15
     510            -103       1       1                               0D     16
     510       9                                                00010000D     17
     510            -103       1       1                               0D     18
     510      10                                                00010000D     19
     510            -103       1       1                               0D     20
     508      11                                                00010000D     21
     508                       1       1                               0D     22
     508      12                                                00010000D     23
     508                       1       1                               0D     24
     508      13                                                00010000D     25
     508                       1       1                               0D     26
     508      14                                                00010000D     27
     508                       1       1                               0D     28
     508      15                                                00010000D     29
     508                       1       1                               0D     30
     508      16                                                00010000D     31
     508                       1       1                               0D     32
     508      17                                                00010000D     33
     508                       1       1                               0D     34
     508      18                                                00010000D     35
     508                       1       1                               0D     36
     508      19                                                00010000D     37
     508                       1       1                               0D     38
     508      20                                                00010000D     39
     508                       1       1                               0D     40
     508      21                                                00010000D     41
     508                       1       1                               0D     42
     508      22                                                00010000D     43
     508                       1       1                               0D     44
     126      23                                                00010000D     45
     126       0              15       0                               0D     46
     126      38                                                00010000D     47
     126       0               3       0                               0D     48
     126      41                                                00010000D     49
     126       0              12       0                               0D     50
     126      53                                                00010000D     51
     126       0              15       0                               0D     52
     126      68                                                00010000D     53
     126       0               4       0                               0D     54
     126      72                                                00010000D     55
     126       0              12       0                               0D     56
     126      84                                                00010000D     57
     126       0               8       0                               0D     58
     126      92                                                00010000D     59
     126       0               3       0                               0D     60
     126      95                                                00010000D     61
     126       0               9       0                               0D     62
     126     104                                                00010000D     63
     126       0               3       0                               0D     64
     126     107                                                00010000D     65
     126       0               3       0                               0D     66
     126     110                                                00010000D     67
     126       0               3       0                               0D     68
     126     113                                                00010000D     69
     126       0               3       0                               0D     70
     126     116                                                00010000D     71
     126       0               7       0                               0D     72
     126     123                                                00010000D     73
     126       0               9       0                               0D     74
     126     132                                                00010000D     75
     126       0               3       0                               0D     76
     126     135                                                00010000D     77
     126       0               3       0                               0D     78
     126     138                                                00010000D     79
     126       0               3       0                               0D     80
     128     141                                                00010000D     81
     128       0    -103      23       0                               0D     82
     128     164                                                00010000D     83
     128       0    -103      23       0                               0D     84
     128     187                                                00010000D     85
     128       0    -103      15       0                               0D     86
     128     202                                                00010000D     87
     128       0    -103       6       0                               0D     88
     128     208                                                00010000D     89
     128       0    -103      14       0                               0D     90
     128     222                                                00010000D     91
     128       0    -103       6       0                               0D     92
     128     228                                                00010000D     93
     128       0    -103       6       0                               0D     94
     128     234                                                00010000D     95
     128       0    -103       5       0                               0D     96
     502     239                                                00010000D     97
     502                      10       1                               0D     98
     504     249                                                00010001D     99
     504                       4       1                               0D    100
     406     253                                                00000000D    101
     406                       1      15                               0D    102
     314     254                                                00000200D    103
     314                       1       0                               0D    104
186,3,1,0,0,1,101;                                                     1P      1
514,8,5,1,7,1,9,1,11,1,13,1,15,1,17,1,19,1;                            3P      2
510,81,1,1,21;                                                         5P      3
510,83,1,1,23;                                                         7P      4
510,85,1,1,25;                                                         9P      5
510,87,1,1,27;                                                        11P      6
510,89,1,1,29;                                                        13P      7
510,91,1,1,31;                                                        15P      8
510,93,3,1,33,35,37;                                                  17P      9
510,95,3,1,39,41,43;                                                  19P     10
508,4,0,99,1,0,0,0,99,2,1,0,0,99,3,1,0,0,99,2,0,0;                    21P     11
508,4,0,99,4,0,0,0,99,5,1,0,0,99,6,1,0,0,99,5,0,0;                    23P     12
508,4,0,99,7,1,0,0,99,8,1,0,0,99,9,0,0,0,99,10,0,0;                   25P     13
508,4,0,99,11,1,0,0,99,10,1,0,0,99,12,0,0,0,99,13,0,0;                27P     14
508,4,0,99,14,1,0,0,99,13,1,0,0,99,15,0,0,0,99,16,0,0;                29P     15
508,4,0,99,17,1,0,0,99,16,1,0,0,99,18,0,0,0,99,8,0,0;                 31P     16
508,4,0,99,18,1,0,0,99,15,1,0,0,99,12,1,0,0,99,9,1,0;                 33P     17
508,1,0,99,4,1,0;                                                     35P     18
508,1,0,99,1,1,0;                                                     37P     19
508,4,0,99,17,0,0,0,99,7,0,0,0,99,11,0,0,0,99,14,0,0;                 39P     20
508,1,0,99,6,0,0;                                                     41P     21
508,1,0,99,3,0,0;                                                     43P     22
126,8,2,0,1,0,0,-3.14159265358979,-3.14159265358979,                  45P     23
-3.14159265358979,-1.5707963267949,-1.5707963267949,0.,0.,            45P     24
1.5707963267949,1.5707963267949,3.14159265358979,                     45P     25
3.14159265358979,3.14159265358979,1.,0.707106781186597,1.,            45P     26
0.707106781186597,1.,0.707106781186597,1.,0.707106781186597,1.,       45P     27
-1.88188976377952,-14.1931623933806,0.236220472440945,                45P     28
-1.88188976377952,-14.3112726296011,0.236220472440945,                45P     29
-1.99999999999999,-14.3112726296011,0.236220472440945,                45P     30
-2.11811023622046,-14.3112726296011,0.236220472440945,                45P     31
-2.11811023622046,-14.1931623933806,0.236220472440945,                45P     32
-2.11811023622046,-14.0750521571601,0.236220472440945,                45P     33
-1.99999999999999,-14.0750521571601,0.236220472440945,                45P     34
-1.88188976377952,-14.0750521571601,0.236220472440945,                45P     35
-1.88188976377952,-14.1931623933806,0.236220472440945,                45P     36
-3.14159265358979,3.14159265358979,0.,0.,0.;                          45P     37
126,1,1,0,0,1,0,-2.,-2.,0.,0.,1.,1.,-1.88188976377952,                47P     38
-14.1931623933806,0.236220472440945,-1.88188976377952,                47P     39
-14.1931623933806,0.,-2.,0.,0.,0.,0.;                                 47P     40
126,8,2,0,1,0,0,-3.14159265358979,-3.14159265358979,                  49P     41
-3.14159265358979,-1.5707963267949,-1.5707963267949,0.,0.,            49P     42
1.5707963267949,1.5707963267949,3.14159265358979,                     49P     43
3.14159265358979,3.14159265358979,1.,0.707106781186597,1.,            49P     44
0.707106781186597,1.,0.707106781186597,1.,0.707106781186597,1.,       49P     45
-1.88188976377952,-14.1931623933806,0.,-1.88188976377952,             49P     46
-14.3112726296011,0.,-1.99999999999999,-14.3112726296011,0.,          49P     47
-2.11811023622046,-14.3112726296011,0.,-2.11811023622046,             49P     48
-14.1931623933806,0.,-2.11811023622046,-14.0750521571601,0.,          49P     49
-1.99999999999999,-14.0750521571601,0.,-1.88188976377952,             49P     50
-14.0750521571601,0.,-1.88188976377952,-14.1931623933806,0.,          49P     51
-3.14159265358979,3.14159265358979,0.,0.,0.;                          49P     52
126,8,2,0,1,0,0,-3.14159265358979,-3.14159265358979,                  51P     53
-3.14159265358979,-1.5707963267949,-1.5707963267949,0.,0.,            51P     54
1.5707963267949,1.5707963267949,3.14159265358979,                     51P     55
3.14159265358979,3.14159265358979,1.,0.707106781186529,1.,            51P     56
0.707106781186529,1.,0.707106781186529,1.,0.707106781186529,1.,       51P     57
2.11811023622048,-14.1931623933806,0.236220472440945,                 51P     58
2.11811023622048,-14.3112726296011,0.236220472440945,                 51P     59
2.00000000000001,-14.3112726296011,0.236220472440945,                 51P     60
1.88188976377954,-14.3112726296011,0.236220472440945,                 51P     61
1.88188976377954,-14.1931623933806,0.236220472440945,                 51P     62
1.88188976377954,-14.0750521571601,0.236220472440945,                 51P     63
2.00000000000001,-14.0750521571601,0.236220472440945,                 51P     64
2.11811023622048,-14.0750521571601,0.236220472440945,                 51P     65
2.11811023622048,-14.1931623933806,0.236220472440945,                 51P     66
-3.14159265358979,3.14159265358979,0.,0.,0.;                          51P     67
126,1,1,0,0,1,0,-2.00000000000001,-2.00000000000001,0.,0.,1.,1.,      53P     68
2.11811023622048,-14.1931623933806,0.236220472440945,                 53P     69
2.11811023622048,-14.1931623933806,0.,-2.00000000000001,0.,0.,        53P     70
0.,0.;                                                                53P     71
126,8,2,0,1,0,0,-3.14159265358979,-3.14159265358979,                  55P     72
-3.14159265358979,-1.5707963267949,-1.5707963267949,0.,0.,            55P     73
1.5707963267949,1.5707963267949,3.14159265358979,                     55P     74
3.14159265358979,3.14159265358979,1.,0.707106781186529,1.,            55P     75
0.707106781186529,1.,0.707106781186529,1.,0.707106781186529,1.,       55P     76
2.11811023622048,-14.1931623933806,0.,2.11811023622048,               55P     77
-14.3112726296011,0.,2.00000000000001,-14.3112726296011,0.,           55P     78
1.88188976377954,-14.3112726296011,0.,1.88188976377954,               55P     79
-14.1931623933806,0.,1.88188976377954,-14.0750521571601,0.,           55P     80
2.00000000000001,-14.0750521571601,0.,2.11811023622048,               55P     81
-14.0750521571601,0.,2.11811023622048,-14.1931623933806,0.,           55P     82
-3.14159265358979,3.14159265358979,0.,0.,0.;                          55P     83
126,4,2,0,0,0,0,1.5707963267949,1.5707963267949,1.5707963267949,      57P     84
3.14159265358979,3.14159265358979,4.71238898038469,                   57P     85
4.71238898038469,4.71238898038469,1.,0.707106781186537,1.,            57P     86
0.707106781186539,1.,-1.99999999999999,-13.6931623933806,0.,          57P     87
-2.49999999999999,-13.6931623933806,0.,-2.49999999999999,             57P     88
-14.1931623933806,0.,-2.49999999999999,-14.6931623933806,0.,          57P     89
-1.99999999999999,-14.6931623933806,0.,1.5707963267949,               57P     90
4.71238898038469,0.,0.,0.;                                            57P     91
126,1,1,0,0,1,0,0.,0.,0.6,0.6,1.,1.,-1.99999999999999,                59P     92
-14.6931623933806,0.,-1.99999999999999,-14.6931623933806,             59P     93
0.236220472440945,0.,0.6,0.,0.,0.;                                    59P     94
126,4,2,0,0,0,0,1.5707963267949,1.5707963267949,1.5707963267949,      61P     95
3.14159265358979,3.14159265358979,4.71238898038469,                   61P     96
4.71238898038469,4.71238898038469,1.,0.707106781186537,1.,            61P     97
0.707106781186539,1.,-1.99999999999999,-13.6931623933806,             61P     98
0.236220472440945,-2.49999999999999,-13.6931623933806,                61P     99
0.236220472440945,-2.49999999999999,-14.1931623933806,                61P    100
0.236220472440945,-2.49999999999999,-14.6931623933806,                61P    101
0.236220472440945,-1.99999999999999,-14.6931623933806,                61P    102
0.236220472440945,1.5707963267949,4.71238898038469,0.,0.,0.;          61P    103
126,1,1,0,0,1,0,0.,0.,0.6,0.6,1.,1.,-1.99999999999999,                63P    104
-13.6931623933806,0.,-1.99999999999999,-13.6931623933806,             63P    105
0.236220472440945,0.,0.6,0.,0.,0.;                                    63P    106
126,1,1,0,0,1,0,0.,0.,10.16,10.16,1.,1.,2.00000000000001,             65P    107
-13.6931623933806,0.,-1.99999999999999,-13.6931623933806,0.,0.,       65P    108
10.16,0.,0.,0.;                                                       65P    109
126,1,1,0,0,1,0,0.,0.,10.16,10.16,1.,1.,2.00000000000001,             67P    110
-13.6931623933806,0.236220472440945,-1.99999999999999,                67P    111
-13.6931623933806,0.236220472440945,0.,10.16,0.,0.,0.;                67P    112
126,1,1,0,0,1,0,0.,0.,0.6,0.6,1.,1.,2.00000000000001,                 69P    113
-13.6931623933806,0.,2.00000000000001,-13.6931623933806,              69P    114
0.236220472440945,0.,0.6,0.,0.,0.;                                    69P    115
126,4,2,0,0,0,0,-1.5707963267949,-1.5707963267949,                    71P    116
-1.5707963267949,0.,0.,1.5707963267949,1.5707963267949,               71P    117
1.5707963267949,1.,0.707106781186537,1.,0.707106781186537,1.,         71P    118
2.00000000000001,-14.6931623933806,0.,2.50000000000001,               71P    119
-14.6931623933806,0.,2.50000000000001,-14.1931623933806,0.,           71P    120
2.50000000000001,-13.6931623933806,0.,2.00000000000001,               71P    121
-13.6931623933806,0.,-1.5707963267949,1.5707963267949,0.,0.,0.;       71P    122
126,4,2,0,0,0,0,-1.5707963267949,-1.5707963267949,                    73P    123
-1.5707963267949,0.,0.,1.5707963267949,1.5707963267949,               73P    124
1.5707963267949,1.,0.707106781186537,1.,0.707106781186537,1.,         73P    125
2.00000000000001,-14.6931623933806,0.236220472440945,                 73P    126
2.50000000000001,-14.6931623933806,0.236220472440945,                 73P    127
2.50000000000001,-14.1931623933806,0.236220472440945,                 73P    128
2.50000000000001,-13.6931623933806,0.236220472440945,                 73P    129
2.00000000000001,-13.6931623933806,0.236220472440945,                 73P    130
-1.5707963267949,1.5707963267949,0.,0.,0.;                            73P    131
126,1,1,0,0,1,0,0.,0.,0.6,0.6,1.,1.,2.00000000000001,                 75P    132
-14.6931623933806,0.,2.00000000000001,-14.6931623933806,              75P    133
0.236220472440945,0.,0.6,0.,0.,0.;                                    75P    134
126,1,1,0,0,1,0,0.,0.,10.16,10.16,1.,1.,-1.99999999999999,            77P    135
-14.6931623933806,0.,2.00000000000001,-14.6931623933806,0.,0.,        77P    136
10.16,0.,0.,0.;                                                       77P    137
126,1,1,0,0,1,0,0.,0.,10.16,10.16,1.,1.,-1.99999999999999,            79P    138
-14.6931623933806,0.236220472440945,2.00000000000001,                 79P    139
-14.6931623933806,0.236220472440945,0.,10.16,0.,0.,0.;                79P    140
128,1,8,1,2,0,1,0,0,1,0.,0.,2.,2.,-3.14159265358979,                  81P    141
-3.14159265358979,-3.14159265358979,-1.5707963267949,                 81P    142
-1.5707963267949,0.,0.,1.5707963267949,1.5707963267949,               81P    143
3.14159265358979,3.14159265358979,3.14159265358979,1.,1.,             81P    144
0.707106781186548,0.707106781186548,1.,1.,0.707106781186548,          81P    145
0.707106781186548,1.,1.,0.707106781186548,0.707106781186548,1.,       81P    146
1.,0.707106781186548,0.707106781186548,1.,1.,-1.88188976377952,       81P    147
-14.1931623933806,0.,-1.88188976377952,-14.1931623933806,             81P    148
0.236220472440945,-1.88188976377952,-14.0750521571601,0.,             81P    149
-1.88188976377952,-14.0750521571601,0.236220472440945,                81P    150
-1.99999999999999,-14.0750521571601,0.,-1.99999999999999,             81P    151
-14.0750521571601,0.236220472440945,-2.11811023622046,                81P    152
-14.0750521571601,0.,-2.11811023622046,-14.0750521571601,             81P    153
0.236220472440945,-2.11811023622046,-14.1931623933806,0.,             81P    154
-2.11811023622046,-14.1931623933806,0.236220472440945,                81P    155
-2.11811023622046,-14.3112726296011,0.,-2.11811023622046,             81P    156
-14.3112726296011,0.236220472440945,-1.99999999999999,                81P    157
-14.3112726296011,0.,-1.99999999999999,-14.3112726296011,             81P    158
0.236220472440945,-1.88188976377952,-14.3112726296011,0.,             81P    159
-1.88188976377952,-14.3112726296011,0.236220472440945,                81P    160
-1.88188976377952,-14.1931623933806,0.,-1.88188976377952,             81P    161
-14.1931623933806,0.236220472440945,0.,2.,-3.14159265358979,          81P    162
3.14159265358979;                                                     81P    163
128,1,8,1,2,0,1,0,0,1,0.,0.,2.00000000000001,2.00000000000001,        83P    164
-3.14159265358979,-3.14159265358979,-3.14159265358979,                83P    165
-1.5707963267949,-1.5707963267949,0.,0.,1.5707963267949,              83P    166
1.5707963267949,3.14159265358979,3.14159265358979,                    83P    167
3.14159265358979,1.,1.,0.707106781186548,0.707106781186548,1.,        83P    168
1.,0.707106781186548,0.707106781186548,1.,1.,0.707106781186548,       83P    169
0.707106781186548,1.,1.,0.707106781186548,0.707106781186548,1.,       83P    170
1.,2.11811023622048,-14.1931623933806,0.,2.11811023622048,            83P    171
-14.1931623933806,0.236220472440945,2.11811023622048,                 83P    172
-14.0750521571601,0.,2.11811023622048,-14.0750521571601,              83P    173
0.236220472440945,2.00000000000001,-14.0750521571601,0.,              83P    174
2.00000000000001,-14.0750521571601,0.236220472440945,                 83P    175
1.88188976377954,-14.0750521571601,0.,1.88188976377954,               83P    176
-14.0750521571601,0.236220472440945,1.88188976377954,                 83P    177
-14.1931623933806,0.,1.88188976377954,-14.1931623933806,              83P    178
0.236220472440945,1.88188976377954,-14.3112726296011,0.,              83P    179
1.88188976377954,-14.3112726296011,0.236220472440945,                 83P    180
2.00000000000001,-14.3112726296011,0.,2.00000000000001,               83P    181
-14.3112726296011,0.236220472440945,2.11811023622048,                 83P    182
-14.3112726296011,0.,2.11811023622048,-14.3112726296011,              83P    183
0.236220472440945,2.11811023622048,-14.1931623933806,0.,              83P    184
2.11811023622048,-14.1931623933806,0.236220472440945,0.,              83P    185
2.00000000000001,-3.14159265358979,3.14159265358979;                  83P    186
128,1,4,1,2,0,0,0,0,0,0.,0.,0.47244094488189,0.47244094488189,        85P    187
1.5707963267949,1.5707963267949,1.5707963267949,                      85P    188
3.14159265358979,3.14159265358979,4.71238898038469,                   85P    189
4.71238898038469,4.71238898038469,1.,1.,0.707106781186548,            85P    190
0.707106781186548,1.,1.,0.707106781186548,0.707106781186548,1.,       85P    191
1.,-1.99999999999999,-13.6931623933806,0.236220472440945,             85P    192
-1.99999999999999,-13.6931623933806,0.,-2.49999999999999,             85P    193
-13.6931623933806,0.236220472440945,-2.49999999999999,                85P    194
-13.6931623933806,0.,-2.49999999999999,-14.1931623933806,             85P    195
0.236220472440945,-2.49999999999999,-14.1931623933806,0.,             85P    196
-2.49999999999999,-14.6931623933806,0.236220472440945,                85P    197
-2.49999999999999,-14.6931623933806,0.,-1.99999999999999,             85P    198
-14.6931623933806,0.236220472440945,-1.99999999999999,                85P    199
-14.6931623933806,0.,0.,0.47244094488189,1.5707963267949,             85P    200
4.71238898038469;                                                     85P    201
128,1,1,1,1,0,0,1,0,0,-0.001,-0.001,10.161,10.161,-0.001,-0.001,      87P    202
0.601,0.601,1.,1.,1.,1.,2.00039370078741,-13.6931623933806,           87P    203
-0.000393700787401575,-2.00039370078739,-13.6931623933806,            87P    204
-0.000393700787401575,2.00039370078741,-13.6931623933806,             87P    205
0.236614173228346,-2.00039370078739,-13.6931623933806,                87P    206
0.236614173228346,-0.001,10.161,-0.001,0.601;                         87P    207
128,1,4,1,2,0,0,0,0,0,0.,0.,0.47244094488189,0.47244094488189,        89P    208
-1.5707963267949,-1.5707963267949,-1.5707963267949,0.,0.,             89P    209
1.5707963267949,1.5707963267949,1.5707963267949,1.,1.,                89P    210
0.707106781186548,0.707106781186548,1.,1.,0.707106781186548,          89P    211
0.707106781186548,1.,1.,2.00000000000001,-14.6931623933806,           89P    212
0.236220472440945,2.00000000000001,-14.6931623933806,0.,              89P    213
2.50000000000001,-14.6931623933806,0.236220472440945,                 89P    214
2.50000000000001,-14.6931623933806,0.,2.50000000000001,               89P    215
-14.1931623933806,0.236220472440945,2.50000000000001,                 89P    216
-14.1931623933806,0.,2.50000000000001,-13.6931623933806,              89P    217
0.236220472440945,2.50000000000001,-13.6931623933806,0.,              89P    218
2.00000000000001,-13.6931623933806,0.236220472440945,                 89P    219
2.00000000000001,-13.6931623933806,0.,0.,0.47244094488189,            89P    220
-1.5707963267949,1.5707963267949;                                     89P    221
128,1,1,1,1,0,0,1,0,0,-0.001,-0.001,10.161,10.161,-0.001,-0.001,      91P    222
0.601,0.601,1.,1.,1.,1.,-2.00039370078739,-14.6931623933806,          91P    223
-0.000393700787401575,2.00039370078741,-14.6931623933806,             91P    224
-0.000393700787401575,-2.00039370078739,-14.6931623933806,            91P    225
0.236614173228346,2.00039370078741,-14.6931623933806,                 91P    226
0.236614173228346,-0.001,10.161,-0.001,0.601;                         91P    227
128,1,1,1,1,0,0,1,0,0,-6.351,-6.351,6.351,6.351,-1.271,-1.271,        93P    228
1.271,1.271,1.,1.,1.,1.,-2.50039370078739,-14.693556094168,           93P    229
0.236220472440945,2.50039370078741,-14.693556094168,                  93P    230
0.236220472440945,-2.50039370078739,-13.6927686925932,                93P    231
0.236220472440945,2.50039370078741,-13.6927686925932,                 93P    232
0.236220472440945,-6.351,6.351,-1.271,1.271;                          93P    233
128,1,1,1,1,0,0,1,0,0,-6.351,-6.351,6.351,6.351,-1.271,-1.271,        95P    234
1.271,1.271,1.,1.,1.,1.,2.50039370078741,-14.693556094168,0.,         95P    235
-2.50039370078739,-14.693556094168,0.,2.50039370078741,               95P    236
-13.6927686925932,0.,-2.50039370078739,-13.6927686925932,0.,          95P    237
-6.351,6.351,-1.271,1.271;                                            95P    238
502,12,-1.88188976377952,-14.1931623933806,0.236220472440945,         97P    239
-1.88188976377952,-14.1931623933806,0.,2.11811023622048,              97P    240
-14.1931623933806,0.236220472440945,2.11811023622048,                 97P    241
-14.1931623933806,0.,-1.99999999999999,-13.6931623933806,0.,          97P    242
-1.99999999999999,-14.6931623933806,0.,-1.99999999999999,             97P    243
-14.6931623933806,0.236220472440945,-1.99999999999999,                97P    244
-13.6931623933806,0.236220472440945,2.00000000000001,                 97P    245
-13.6931623933806,0.,2.00000000000001,-13.6931623933806,              97P    246
0.236220472440945,2.00000000000001,-14.6931623933806,0.,              97P    247
2.00000000000001,-14.6931623933806,0.236220472440945;                 97P    248
504,18,45,97,1,97,1,47,97,1,97,2,49,97,2,97,2,51,97,3,97,3,53,        99P    249
97,3,97,4,55,97,4,97,4,57,97,5,97,6,59,97,6,97,7,61,97,8,97,7,        99P    250
63,97,5,97,8,65,97,9,97,5,67,97,10,97,8,69,97,9,97,10,71,97,11,       99P    251
97,9,73,97,12,97,10,75,97,11,97,12,77,97,6,97,11,79,97,7,97,12;       99P    252
406,1,6HSolid1;                                                      101P    253
314,74.9019607843137,74.9019607843137,74.9019607843137,;             103P    254
S      1G      3D    104P    254                                        T      1
