                                                                        S      1
,,,17HHolder_Part6_qty3,22HAutodesk Inventor 2023,7Hunknown,32,38,7,99, G      1
15,,1.,1,4HINCH,1,0.08,15H20220516.185941,0.000393700787401575,10000.,5HG      2
Aaron,,11,0,15H20220516.000000;                                         G      3
     186       1                                                00000000D      1
     186            -103       1       0                               0D      2
     514       2                                                00010000D      3
     514                       1       1                               0D      4
     510       3                                                00010000D      5
     510            -103       1       1                               0D      6
     510       4                                                00010000D      7
     510            -103       1       1                               0D      8
     510       5                                                00010000D      9
     510            -103       1       1                               0D     10
     510       6                                                00010000D     11
     510            -103       1       1                               0D     12
     510       7                                                00010000D     13
     510            -103       1       1                               0D     14
     510       8                                                00010000D     15
     510            -103       1       1                               0D     16
     510       9                                                00010000D     17
     510            -103       1       1                               0D     18
     510      10                                                00010000D     19
     510            -103       1       1                               0D     20
     508      11                                                00010000D     21
     508                       1       1                               0D     22
     508      12                                                00010000D     23
     508                       1       1                               0D     24
     508      13                                                00010000D     25
     508                       1       1                               0D     26
     508      14                                                00010000D     27
     508                       1       1                               0D     28
     508      15                                                00010000D     29
     508                       1       1                               0D     30
     508      16                                                00010000D     31
     508                       1       1                               0D     32
     508      17                                                00010000D     33
     508                       1       1                               0D     34
     508      18                                                00010000D     35
     508                       1       1                               0D     36
     508      19                                                00010000D     37
     508                       1       1                               0D     38
     508      20                                                00010000D     39
     508                       1       1                               0D     40
     508      21                                                00010000D     41
     508                       1       1                               0D     42
     508      22                                                00010000D     43
     508                       1       1                               0D     44
     126      23                                                00010000D     45
     126       0              15       0                               0D     46
     126      38                                                00010000D     47
     126       0               3       0                               0D     48
     126      41                                                00010000D     49
     126       0              12       0                               0D     50
     126      53                                                00010000D     51
     126       0              15       0                               0D     52
     126      68                                                00010000D     53
     126       0               3       0                               0D     54
     126      71                                                00010000D     55
     126       0              12       0                               0D     56
     126      83                                                00010000D     57
     126       0               7       0                               0D     58
     126      90                                                00010000D     59
     126       0               3       0                               0D     60
     126      93                                                00010000D     61
     126       0               8       0                               0D     62
     126     101                                                00010000D     63
     126       0               3       0                               0D     64
     126     104                                                00010000D     65
     126       0               3       0                               0D     66
     126     107                                                00010000D     67
     126       0               4       0                               0D     68
     126     111                                                00010000D     69
     126       0               3       0                               0D     70
     126     114                                                00010000D     71
     126       0               7       0                               0D     72
     126     121                                                00010000D     73
     126       0               8       0                               0D     74
     126     129                                                00010000D     75
     126       0               3       0                               0D     76
     126     132                                                00010000D     77
     126       0               3       0                               0D     78
     126     135                                                00010000D     79
     126       0               4       0                               0D     80
     128     139                                                00010000D     81
     128       0    -103      23       0                               0D     82
     128     162                                                00010000D     83
     128       0    -103      23       0                               0D     84
     128     185                                                00010000D     85
     128       0    -103      13       0                               0D     86
     128     198                                                00010000D     87
     128       0    -103       7       0                               0D     88
     128     205                                                00010000D     89
     128       0    -103      13       0                               0D     90
     128     218                                                00010000D     91
     128       0    -103       7       0                               0D     92
     128     225                                                00010000D     93
     128       0    -103       7       0                               0D     94
     128     232                                                00010000D     95
     128       0    -103       6       0                               0D     96
     502     238                                                00010000D     97
     502                      10       1                               0D     98
     504     248                                                00010001D     99
     504                       4       1                               0D    100
     406     252                                                00000000D    101
     406                       1      15                               0D    102
     314     253                                                00000200D    103
     314                       1       0                               0D    104
186,3,1,0,0,1,101;                                                     1P      1
514,8,5,1,7,1,9,1,11,1,13,1,15,1,17,1,19,1;                            3P      2
510,81,1,1,21;                                                         5P      3
510,83,1,1,23;                                                         7P      4
510,85,1,1,25;                                                         9P      5
510,87,1,1,27;                                                        11P      6
510,89,1,1,29;                                                        13P      7
510,91,1,1,31;                                                        15P      8
510,93,3,1,33,35,37;                                                  17P      9
510,95,3,1,39,41,43;                                                  19P     10
508,4,0,99,1,0,0,0,99,2,1,0,0,99,3,1,0,0,99,2,0,0;                    21P     11
508,4,0,99,4,0,0,0,99,5,1,0,0,99,6,1,0,0,99,5,0,0;                    23P     12
508,4,0,99,7,1,0,0,99,8,1,0,0,99,9,0,0,0,99,10,0,0;                   25P     13
508,4,0,99,11,1,0,0,99,10,1,0,0,99,12,0,0,0,99,13,0,0;                27P     14
508,4,0,99,14,1,0,0,99,13,1,0,0,99,15,0,0,0,99,16,0,0;                29P     15
508,4,0,99,17,1,0,0,99,16,1,0,0,99,18,0,0,0,99,8,0,0;                 31P     16
508,4,0,99,18,1,0,0,99,15,1,0,0,99,12,1,0,0,99,9,1,0;                 33P     17
508,1,0,99,4,1,0;                                                     35P     18
508,1,0,99,1,1,0;                                                     37P     19
508,4,0,99,17,0,0,0,99,7,0,0,0,99,11,0,0,0,99,14,0,0;                 39P     20
508,1,0,99,6,0,0;                                                     41P     21
508,1,0,99,3,0,0;                                                     43P     22
126,8,2,0,1,0,0,-3.14159265358979,-3.14159265358979,                  45P     23
-3.14159265358979,-1.5707963267949,-1.5707963267949,0.,0.,            45P     24
1.5707963267949,1.5707963267949,3.14159265358979,                     45P     25
3.14159265358979,3.14159265358979,1.,0.707106781186548,1.,            45P     26
0.707106781186545,1.,0.707106781186545,1.,0.707106781186548,1.,       45P     27
-0.63188976377953,2.37063914199586,0.236220472440945,                 45P     28
-0.63188976377953,2.25252890577539,0.236220472440945,                 45P     29
-0.750000000000002,2.25252890577539,0.236220472440945,                45P     30
-0.868110236220475,2.25252890577539,0.236220472440945,                45P     31
-0.868110236220475,2.37063914199586,0.236220472440945,                45P     32
-0.868110236220475,2.48874937821633,0.236220472440945,                45P     33
-0.750000000000002,2.48874937821633,0.236220472440945,                45P     34
-0.63188976377953,2.48874937821633,0.236220472440945,                 45P     35
-0.63188976377953,2.37063914199586,0.236220472440945,                 45P     36
-3.14159265358979,3.14159265358979,0.,0.,0.;                          45P     37
126,1,1,0,0,1,0,-2.,-2.,0.,0.,1.,1.,-0.63188976377953,                47P     38
2.37063914199586,0.236220472440945,-0.63188976377953,                 47P     39
2.37063914199586,0.,-2.,0.,0.,0.,0.;                                  47P     40
126,8,2,0,1,0,0,-3.14159265358979,-3.14159265358979,                  49P     41
-3.14159265358979,-1.5707963267949,-1.5707963267949,0.,0.,            49P     42
1.5707963267949,1.5707963267949,3.14159265358979,                     49P     43
3.14159265358979,3.14159265358979,1.,0.707106781186548,1.,            49P     44
0.707106781186545,1.,0.707106781186545,1.,0.707106781186548,1.,       49P     45
-0.63188976377953,2.37063914199586,0.,-0.63188976377953,              49P     46
2.25252890577539,0.,-0.750000000000002,2.25252890577539,0.,           49P     47
-0.868110236220475,2.25252890577539,0.,-0.868110236220475,            49P     48
2.37063914199586,0.,-0.868110236220475,2.48874937821633,0.,           49P     49
-0.750000000000002,2.48874937821633,0.,-0.63188976377953,             49P     50
2.48874937821633,0.,-0.63188976377953,2.37063914199586,0.,            49P     51
-3.14159265358979,3.14159265358979,0.,0.,0.;                          49P     52
126,8,2,0,1,0,0,-3.14159265358979,-3.14159265358979,                  51P     53
-3.14159265358979,-1.5707963267949,-1.5707963267949,0.,0.,            51P     54
1.5707963267949,1.5707963267949,3.14159265358979,                     51P     55
3.14159265358979,3.14159265358979,1.,0.707106781186542,1.,            51P     56
0.707106781186544,1.,0.707106781186544,1.,0.707106781186542,1.,       51P     57
0.86811023622047,2.37063914199586,0.236220472440945,                  51P     58
0.86811023622047,2.25252890577539,0.236220472440945,                  51P     59
0.749999999999998,2.25252890577539,0.236220472440945,                 51P     60
0.631889763779525,2.25252890577539,0.236220472440945,                 51P     61
0.631889763779525,2.37063914199586,0.236220472440945,                 51P     62
0.631889763779525,2.48874937821633,0.236220472440945,                 51P     63
0.749999999999998,2.48874937821633,0.236220472440945,                 51P     64
0.86811023622047,2.48874937821633,0.236220472440945,                  51P     65
0.86811023622047,2.37063914199586,0.236220472440945,                  51P     66
-3.14159265358979,3.14159265358979,0.,0.,0.;                          51P     67
126,1,1,0,0,1,0,-2.,-2.,0.,0.,1.,1.,0.86811023622047,                 53P     68
2.37063914199586,0.236220472440945,0.86811023622047,                  53P     69
2.37063914199586,0.,-2.,0.,0.,0.,0.;                                  53P     70
126,8,2,0,1,0,0,-3.14159265358979,-3.14159265358979,                  55P     71
-3.14159265358979,-1.5707963267949,-1.5707963267949,0.,0.,            55P     72
1.5707963267949,1.5707963267949,3.14159265358979,                     55P     73
3.14159265358979,3.14159265358979,1.,0.707106781186542,1.,            55P     74
0.707106781186544,1.,0.707106781186544,1.,0.707106781186542,1.,       55P     75
0.86811023622047,2.37063914199586,0.,0.86811023622047,                55P     76
2.25252890577539,0.,0.749999999999998,2.25252890577539,0.,            55P     77
0.631889763779525,2.25252890577539,0.,0.631889763779525,              55P     78
2.37063914199586,0.,0.631889763779525,2.48874937821633,0.,            55P     79
0.749999999999998,2.48874937821633,0.,0.86811023622047,               55P     80
2.48874937821633,0.,0.86811023622047,2.37063914199586,0.,             55P     81
-3.14159265358979,3.14159265358979,0.,0.,0.;                          55P     82
126,4,2,0,0,0,0,0.,0.,0.,1.57079632679489,1.57079632679489,           57P     83
3.14159265358979,3.14159265358979,3.14159265358979,1.,                57P     84
0.707106781186551,1.,0.707106781186549,1.,-0.870068975992408,         57P     85
2.52063914199586,0.,-1.02006897599241,2.52063914199586,0.,            57P     86
-1.02006897599241,2.37063914199586,0.,-1.02006897599241,              57P     87
2.22063914199586,0.,-0.870068975992408,2.22063914199586,0.,0.,        57P     88
3.14159265358979,0.,0.,0.;                                            57P     89
126,1,1,0,0,1,0,0.,0.,0.6,0.6,1.,1.,-0.870068975992408,               59P     90
2.22063914199586,0.,-0.870068975992408,2.22063914199586,              59P     91
0.236220472440945,0.,0.6,0.,0.,0.;                                    59P     92
126,4,2,0,0,0,0,0.,0.,0.,1.57079632679489,1.57079632679489,           61P     93
3.14159265358979,3.14159265358979,3.14159265358979,1.,                61P     94
0.707106781186551,1.,0.707106781186549,1.,-0.870068975992408,         61P     95
2.52063914199586,0.236220472440945,-1.02006897599241,                 61P     96
2.52063914199586,0.236220472440945,-1.02006897599241,                 61P     97
2.37063914199586,0.236220472440945,-1.02006897599241,                 61P     98
2.22063914199586,0.236220472440945,-0.870068975992408,                61P     99
2.22063914199586,0.236220472440945,0.,3.14159265358979,0.,0.,0.;      61P    100
126,1,1,0,0,1,0,0.,0.,0.6,0.6,1.,1.,-0.870068975992408,               63P    101
2.52063914199586,0.,-0.870068975992408,2.52063914199586,              63P    102
0.236220472440945,0.,0.6,0.,0.,0.;                                    63P    103
126,1,1,0,0,1,0,0.,0.,4.41995039804142,4.41995039804142,1.,1.,        65P    104
0.870068975992403,2.52063914199586,0.,-0.870068975992408,             65P    105
2.52063914199586,0.,0.,4.41995039804142,0.,0.,0.;                     65P    106
126,1,1,0,0,1,0,0.,0.,4.41995039804142,4.41995039804142,1.,1.,        67P    107
0.870068975992403,2.52063914199586,0.236220472440945,                 67P    108
-0.870068975992408,2.52063914199586,0.236220472440945,0.,             67P    109
4.41995039804142,0.,0.,0.;                                            67P    110
126,1,1,0,0,1,0,0.,0.,0.6,0.6,1.,1.,0.870068975992403,                69P    111
2.52063914199586,0.,0.870068975992403,2.52063914199586,               69P    112
0.236220472440945,0.,0.6,0.,0.,0.;                                    69P    113
126,4,2,0,0,0,0,0.,0.,0.,1.57079632679489,1.57079632679489,           71P    114
3.14159265358979,3.14159265358979,3.14159265358979,1.,                71P    115
0.707106781186547,1.,0.70710678118655,1.,0.870068975992403,           71P    116
2.22063914199586,0.,1.0200689759924,2.22063914199586,0.,              71P    117
1.0200689759924,2.37063914199586,0.,1.0200689759924,                  71P    118
2.52063914199586,0.,0.870068975992403,2.52063914199586,0.,0.,         71P    119
3.14159265358979,0.,0.,0.;                                            71P    120
126,4,2,0,0,0,0,0.,0.,0.,1.57079632679489,1.57079632679489,           73P    121
3.14159265358979,3.14159265358979,3.14159265358979,1.,                73P    122
0.707106781186547,1.,0.70710678118655,1.,0.870068975992403,           73P    123
2.22063914199586,0.236220472440945,1.0200689759924,                   73P    124
2.22063914199586,0.236220472440945,1.0200689759924,                   73P    125
2.37063914199586,0.236220472440945,1.0200689759924,                   73P    126
2.52063914199586,0.236220472440945,0.870068975992403,                 73P    127
2.52063914199586,0.236220472440945,0.,3.14159265358979,0.,0.,0.;      73P    128
126,1,1,0,0,1,0,0.,0.,0.6,0.6,1.,1.,0.870068975992403,                75P    129
2.22063914199586,0.,0.870068975992403,2.22063914199586,               75P    130
0.236220472440945,0.,0.6,0.,0.,0.;                                    75P    131
126,1,1,0,0,1,0,0.,0.,4.41995039804142,4.41995039804142,1.,1.,        77P    132
-0.870068975992408,2.22063914199586,0.,0.870068975992403,             77P    133
2.22063914199586,0.,0.,4.41995039804142,0.,0.,0.;                     77P    134
126,1,1,0,0,1,0,0.,0.,4.41995039804142,4.41995039804142,1.,1.,        79P    135
-0.870068975992408,2.22063914199586,0.236220472440945,                79P    136
0.870068975992403,2.22063914199586,0.236220472440945,0.,              79P    137
4.41995039804142,0.,0.,0.;                                            79P    138
128,1,8,1,2,0,1,0,0,1,0.,0.,2.,2.,-3.14159265358979,                  81P    139
-3.14159265358979,-3.14159265358979,-1.5707963267949,                 81P    140
-1.5707963267949,0.,0.,1.5707963267949,1.5707963267949,               81P    141
3.14159265358979,3.14159265358979,3.14159265358979,1.,1.,             81P    142
0.707106781186548,0.707106781186548,1.,1.,0.707106781186548,          81P    143
0.707106781186548,1.,1.,0.707106781186548,0.707106781186548,1.,       81P    144
1.,0.707106781186548,0.707106781186548,1.,1.,-0.63188976377953,       81P    145
2.37063914199586,0.,-0.63188976377953,2.37063914199586,               81P    146
0.236220472440945,-0.63188976377953,2.48874937821633,0.,              81P    147
-0.63188976377953,2.48874937821633,0.236220472440945,                 81P    148
-0.750000000000002,2.48874937821633,0.,-0.750000000000002,            81P    149
2.48874937821633,0.236220472440945,-0.868110236220475,                81P    150
2.48874937821633,0.,-0.868110236220475,2.48874937821633,              81P    151
0.236220472440945,-0.868110236220475,2.37063914199586,0.,             81P    152
-0.868110236220475,2.37063914199586,0.236220472440945,                81P    153
-0.868110236220475,2.25252890577539,0.,-0.868110236220475,            81P    154
2.25252890577539,0.236220472440945,-0.750000000000002,                81P    155
2.25252890577539,0.,-0.750000000000002,2.25252890577539,              81P    156
0.236220472440945,-0.63188976377953,2.25252890577539,0.,              81P    157
-0.63188976377953,2.25252890577539,0.236220472440945,                 81P    158
-0.63188976377953,2.37063914199586,0.,-0.63188976377953,              81P    159
2.37063914199586,0.236220472440945,0.,2.,-3.14159265358979,           81P    160
3.14159265358979;                                                     81P    161
128,1,8,1,2,0,1,0,0,1,0.,0.,2.,2.,-3.14159265358979,                  83P    162
-3.14159265358979,-3.14159265358979,-1.5707963267949,                 83P    163
-1.5707963267949,0.,0.,1.5707963267949,1.5707963267949,               83P    164
3.14159265358979,3.14159265358979,3.14159265358979,1.,1.,             83P    165
0.707106781186548,0.707106781186548,1.,1.,0.707106781186548,          83P    166
0.707106781186548,1.,1.,0.707106781186548,0.707106781186548,1.,       83P    167
1.,0.707106781186548,0.707106781186548,1.,1.,0.86811023622047,        83P    168
2.37063914199586,0.,0.86811023622047,2.37063914199586,                83P    169
0.236220472440945,0.86811023622047,2.48874937821633,0.,               83P    170
0.86811023622047,2.48874937821633,0.236220472440945,                  83P    171
0.749999999999998,2.48874937821633,0.,0.749999999999998,              83P    172
2.48874937821633,0.236220472440945,0.631889763779525,                 83P    173
2.48874937821633,0.,0.631889763779525,2.48874937821633,               83P    174
0.236220472440945,0.631889763779525,2.37063914199586,0.,              83P    175
0.631889763779525,2.37063914199586,0.236220472440945,                 83P    176
0.631889763779525,2.25252890577539,0.,0.631889763779525,              83P    177
2.25252890577539,0.236220472440945,0.749999999999998,                 83P    178
2.25252890577539,0.,0.749999999999998,2.25252890577539,               83P    179
0.236220472440945,0.86811023622047,2.25252890577539,0.,               83P    180
0.86811023622047,2.25252890577539,0.236220472440945,                  83P    181
0.86811023622047,2.37063914199586,0.,0.86811023622047,                83P    182
2.37063914199586,0.236220472440945,0.,2.,-3.14159265358979,           83P    183
3.14159265358979;                                                     83P    184
128,1,4,1,2,0,0,0,0,0,0.,0.,1.5748031496063,1.5748031496063,0.,       85P    185
0.,0.,1.5707963267949,1.5707963267949,3.14159265358979,               85P    186
3.14159265358979,3.14159265358979,1.,1.,0.707106781186548,            85P    187
0.707106781186548,1.,1.,0.707106781186548,0.707106781186548,1.,       85P    188
1.,-0.870068975992408,2.52063914199586,0.236220472440945,             85P    189
-0.870068975992408,2.52063914199586,0.,-1.02006897599241,             85P    190
2.52063914199586,0.236220472440945,-1.02006897599241,                 85P    191
2.52063914199586,0.,-1.02006897599241,2.37063914199586,               85P    192
0.236220472440945,-1.02006897599241,2.37063914199586,0.,              85P    193
-1.02006897599241,2.22063914199586,0.236220472440945,                 85P    194
-1.02006897599241,2.22063914199586,0.,-0.870068975992407,             85P    195
2.22063914199586,0.236220472440945,-0.870068975992407,                85P    196
2.22063914199586,0.,0.,1.5748031496063,0.,3.14159265358979;           85P    197
128,1,1,1,1,0,0,1,0,0,-0.001,-0.001,4.42095039804142,                 87P    198
4.42095039804142,-0.001,-0.001,0.601,0.601,1.,1.,1.,1.,               87P    199
0.870462676779805,2.52063914199586,-0.000393700787401575,             87P    200
-0.87046267677981,2.52063914199586,-0.000393700787401575,             87P    201
0.870462676779805,2.52063914199586,0.236614173228346,                 87P    202
-0.87046267677981,2.52063914199586,0.236614173228346,-0.001,          87P    203
4.42095039804142,-0.001,0.601;                                        87P    204
128,1,4,1,2,0,0,0,0,0,0.,0.,1.5748031496063,1.5748031496063,0.,       89P    205
0.,0.,1.5707963267949,1.5707963267949,3.14159265358979,               89P    206
3.14159265358979,3.14159265358979,1.,1.,0.707106781186548,            89P    207
0.707106781186548,1.,1.,0.707106781186548,0.707106781186548,1.,       89P    208
1.,0.870068975992403,2.22063914199586,0.236220472440945,              89P    209
0.870068975992403,2.22063914199586,0.,1.0200689759924,                89P    210
2.22063914199586,0.236220472440945,1.0200689759924,                   89P    211
2.22063914199586,0.,1.0200689759924,2.37063914199586,                 89P    212
0.236220472440945,1.0200689759924,2.37063914199586,0.,                89P    213
1.0200689759924,2.52063914199586,0.236220472440945,                   89P    214
1.0200689759924,2.52063914199586,0.,0.870068975992403,                89P    215
2.52063914199586,0.236220472440945,0.870068975992403,                 89P    216
2.52063914199586,0.,0.,1.5748031496063,0.,3.14159265358979;           89P    217
128,1,1,1,1,0,0,1,0,0,-0.001,-0.001,4.42095039804142,                 91P    218
4.42095039804142,-0.001,-0.001,0.601,0.601,1.,1.,1.,1.,               91P    219
-0.870462676779809,2.22063914199586,-0.000393700787401575,            91P    220
0.870462676779804,2.22063914199586,-0.000393700787401575,             91P    221
-0.870462676779809,2.22063914199586,0.236614173228346,                91P    222
0.870462676779804,2.22063914199586,0.236614173228346,-0.001,          91P    223
4.42095039804142,-0.001,0.601;                                        91P    224
128,1,1,1,1,0,0,1,0,0,-2.59197519902071,-2.59197519902071,            93P    225
2.59197519902071,2.59197519902071,-0.382,-0.382,0.382,0.382,1.,       93P    226
1.,1.,1.,-1.02046267677981,2.22024544120846,0.236220472440945,        93P    227
1.0204626767798,2.22024544120846,0.236220472440945,                   93P    228
-1.02046267677981,2.52103284278326,0.236220472440945,                 93P    229
1.0204626767798,2.52103284278326,0.236220472440945,                   93P    230
-2.59197519902071,2.59197519902071,-0.382,0.382;                      93P    231
128,1,1,1,1,0,0,1,0,0,-2.59197519902071,-2.59197519902071,            95P    232
2.59197519902071,2.59197519902071,-0.382,-0.382,0.382,0.382,1.,       95P    233
1.,1.,1.,1.0204626767798,2.22024544120846,0.,-1.02046267677981,       95P    234
2.22024544120846,0.,1.0204626767798,2.52103284278326,0.,              95P    235
-1.02046267677981,2.52103284278326,0.,-2.59197519902071,              95P    236
2.59197519902071,-0.382,0.382;                                        95P    237
502,12,-0.63188976377953,2.37063914199586,0.236220472440945,          97P    238
-0.63188976377953,2.37063914199586,0.,0.86811023622047,               97P    239
2.37063914199586,0.236220472440945,0.86811023622047,                  97P    240
2.37063914199586,0.,-0.870068975992408,2.52063914199586,0.,           97P    241
-0.870068975992408,2.22063914199586,0.,-0.870068975992408,            97P    242
2.22063914199586,0.236220472440945,-0.870068975992408,                97P    243
2.52063914199586,0.236220472440945,0.870068975992403,                 97P    244
2.52063914199586,0.,0.870068975992403,2.52063914199586,               97P    245
0.236220472440945,0.870068975992403,2.22063914199586,0.,              97P    246
0.870068975992403,2.22063914199586,0.236220472440945;                 97P    247
504,18,45,97,1,97,1,47,97,1,97,2,49,97,2,97,2,51,97,3,97,3,53,        99P    248
97,3,97,4,55,97,4,97,4,57,97,5,97,6,59,97,6,97,7,61,97,8,97,7,        99P    249
63,97,5,97,8,65,97,9,97,5,67,97,10,97,8,69,97,9,97,10,71,97,11,       99P    250
97,9,73,97,12,97,10,75,97,11,97,12,77,97,6,97,11,79,97,7,97,12;       99P    251
406,1,6HSolid1;                                                      101P    252
314,74.9019607843137,74.9019607843137,74.9019607843137,;             103P    253
S      1G      3D    104P    253                                        T      1
